<svg width="191" height="152" viewBox="0 0 191 152" fill="none" xmlns="http://www.w3.org/2000/svg">
<path fill-rule="evenodd" clip-rule="evenodd" d="M190.952 57.9598C190.952 83.9549 180.438 107.464 163.444 124.459C146.446 141.445 122.933 151.956 96.9341 151.96V152H96.9297V151.96C70.9267 151.956 47.4091 141.445 30.4198 124.454C13.4216 107.464 2.9122 83.9549 2.9078 57.9642C2.9078 51.3709 8.20872 46.0164 14.8074 46.0164C21.4016 46.0164 26.7509 51.3622 26.7509 57.9554V57.9642C26.7509 77.3002 34.5769 94.8441 47.3079 107.574C60.0345 120.295 77.5825 128.17 96.9297 128.17V128.122H96.9341V128.17C116.277 128.17 133.825 120.295 146.552 107.574C159.283 94.8441 167.157 77.3002 167.157 57.9598H167.113V57.9554C167.113 51.3622 172.458 46.0164 179.056 46.0164C185.651 46.0164 191 51.3622 191 57.9554V57.9598H190.952ZM137.921 98.9379C127.455 109.397 112.969 115.867 96.9341 115.867V115.911H96.9297V115.867C80.8906 115.867 66.4044 109.397 55.9433 98.9379C45.4823 88.4749 39.0068 73.9882 39.0068 57.9642H38.9584V57.9554H39.0068C39.0068 41.9226 45.4823 27.4359 55.9433 16.9772C66.4044 6.51855 80.8906 0.0483181 96.9209 0.0483181V0H96.9297H96.9341V0.0483181C112.964 0.0483181 127.459 6.51855 137.921 16.9816C148.382 27.4403 154.853 41.9226 154.853 57.951H154.901V57.9554V57.9598H154.853C154.853 73.9882 148.382 88.4749 137.921 98.9379ZM131.058 57.951C131.058 48.5773 127.226 40.0557 121.032 33.8622C114.834 27.6687 106.313 23.834 96.9341 23.834V23.8823H96.9297H96.9209V23.834C87.5464 23.834 79.0254 27.6687 72.8315 33.8622C66.6331 40.0557 62.8015 48.5773 62.8015 57.9554H62.8455V57.9642H62.8015C62.8015 67.3379 66.6331 75.8594 72.8315 82.0529C79.0254 88.2464 87.5464 92.0811 96.9297 92.0811V92.0328H96.9341V92.0811C106.313 92.0811 114.834 88.2464 121.028 82.0529C127.226 75.8594 131.058 67.3379 131.058 57.9598H131.014V57.9554V57.951H131.058ZM14.825 40.6267C6.63824 40.6267 0 33.9852 0 25.8019C0 17.6185 6.63824 10.9814 14.825 10.9814C23.0117 10.9814 29.6543 17.6185 29.6543 25.8019C29.6543 33.9852 23.0117 40.6267 14.825 40.6267Z" fill="#EC0344"/>
</svg>
