<svg width="22" height="26" viewBox="0 0 22 26" fill="none" xmlns="http://www.w3.org/2000/svg">
<path d="M10.9999 5.65637C11.7766 5.65637 12.4062 5.02677 12.4062 4.25012C12.4062 3.47347 11.7766 2.84387 10.9999 2.84387V5.65637ZM3.84612 20.2093C4.39739 20.7564 5.28778 20.753 5.83484 20.2017C6.38191 19.6504 6.37849 18.76 5.82722 18.213L3.84612 20.2093ZM8.57987 7.22008C8.14906 7.86629 8.32368 8.73939 8.96989 9.17019C9.61611 9.601 10.4892 9.42638 10.92 8.78017L8.57987 7.22008ZM12.2499 4.25012L13.42 5.03017C13.8508 4.38396 13.6762 3.51086 13.03 3.08005L12.2499 4.25012ZM9.27999 0.580051C8.63377 0.149243 7.76068 0.323863 7.32987 0.970075C6.89906 1.61629 7.07368 2.48938 7.71989 2.92019L9.27999 0.580051ZM10.9999 20.3048C10.2233 20.3048 9.59369 20.9345 9.59369 21.7111C9.59369 22.4877 10.2233 23.1173 10.9999 23.1173V20.3048ZM18.1538 5.75192C17.6025 5.20485 16.7121 5.20827 16.165 5.75954C15.618 6.31082 15.6214 7.2012 16.1727 7.74827L18.1538 5.75192ZM13.42 18.7802C13.8508 18.134 13.6762 17.2609 13.03 16.8301C12.3838 16.3992 11.5107 16.5739 11.0799 17.2201L13.42 18.7802ZM9.74994 21.7501L8.57987 20.9701C8.14906 21.6163 8.32368 22.4894 8.96989 22.9202L9.74994 21.7501ZM12.7199 25.4202C13.3661 25.851 14.2392 25.6764 14.67 25.0302C15.1008 24.384 14.9262 23.5109 14.28 23.0801L12.7199 25.4202ZM10.9999 2.84387C5.3908 2.84387 0.843689 7.39098 0.843689 13.0001H3.65619C3.65619 8.94428 6.9441 5.65637 10.9999 5.65637V2.84387ZM0.843689 13.0001C0.843689 15.8184 1.99348 18.3708 3.84612 20.2093L5.82722 18.213C4.48488 16.8809 3.65619 15.0386 3.65619 13.0001H0.843689ZM10.92 8.78017L13.42 5.03017L11.0799 3.47008L8.57987 7.22008L10.92 8.78017ZM13.03 3.08005L9.27999 0.580051L7.71989 2.92019L11.4699 5.42019L13.03 3.08005ZM10.9999 23.1173C16.6091 23.1173 21.1562 18.5702 21.1562 12.9611H18.3437C18.3437 17.0169 15.0558 20.3048 10.9999 20.3048V23.1173ZM21.1562 12.9611C21.1562 10.1428 20.0064 7.5904 18.1538 5.75192L16.1727 7.74827C17.515 9.08035 18.3437 10.9226 18.3437 12.9611H21.1562ZM11.0799 17.2201L8.57987 20.9701L10.92 22.5302L13.42 18.7802L11.0799 17.2201ZM8.96989 22.9202L12.7199 25.4202L14.28 23.0801L10.53 20.5801L8.96989 22.9202Z" fill="#EC0344"/>
</svg>
